<?xml version="1.0" ?><svg style="enable-background:new 0 0 32 32;" version="1.1" viewBox="0 0 32 32" xml:space="preserve" xmlns="http://www.w3.org/2000/svg" xmlns:xlink="http://www.w3.org/1999/xlink"><style type="text/css">
	.st0{fill:#222A30;}
	.st1{fill:none;stroke:#222A30;stroke-width:1.8761;stroke-linejoin:round;stroke-miterlimit:10;}
	.st2{fill:#171715;}
	.st3{fill-rule:evenodd;clip-rule:evenodd;fill:#222A30;}
</style><g id="Layer_1"/><g id="icons"><path class="st0" d="M16,2C8.3,2,2,8.3,2,16c0,7.7,6.3,14,14,14c7.7,0,14-6.3,14-14C30,8.3,23.7,2,16,2z M21.4,23.7   c-0.4,0.3-1,0.5-1.5,0.5c-0.7,0-1.4-0.3-1.9-1l-2.8-3.7c-0.2-0.3-0.7-0.1-0.7,0.2v2c0,1.4-1.1,2.5-2.5,2.4   c-1.3-0.1-2.3-1.2-2.3-2.5V10.2c0-1.4,1.1-2.5,2.5-2.4c1.3,0.1,2.3,1.2,2.3,2.5v1.9c0,0.4,0.5,0.5,0.7,0.2L18,8.8   c0.8-1.1,2.4-1.3,3.5-0.4c1,0.8,1.1,2.3,0.3,3.4l-2.9,3.8c-0.2,0.2-0.2,0.6,0,0.8l2.9,3.9C22.5,21.3,22.4,22.8,21.4,23.7z" id="k"/></g></svg>